GRFwalking.mot
version=1
nRows=19
nColumns=37
inDegrees=yes
endheader
time	ground_force_calcn_l_vx	ground_force_calcn_l_vy	ground_force_calcn_l_vz	ground_force_calcn_l_px	ground_force_calcn_l_py	ground_force_calcn_l_pz	ground_torque_calcn_l_vx	ground_torque_calcn_l_vy	ground_torque_calcn_l_vz	ground_force_calcn_r_vx	ground_force_calcn_r_vy	ground_force_calcn_r_vz	ground_force_calcn_r_px	ground_force_calcn_r_py	ground_force_calcn_r_pz	ground_torque_calcn_r_vx	ground_torque_calcn_r_vy	ground_torque_calcn_r_vz	ground_force_hand_l_vx	ground_force_hand_l_vy	ground_force_hand_l_vz	ground_force_hand_l_px	ground_force_hand_l_py	ground_force_hand_l_pz	ground_torque_hand_l_vx	ground_torque_hand_l_vy	ground_torque_hand_l_vz	ground_force_hand_r_vx	ground_force_hand_r_vy	ground_force_hand_r_vz	ground_force_hand_r_px	ground_force_hand_r_py	ground_force_hand_r_pz	ground_torque_hand_r_vx	ground_torque_hand_r_vy	ground_torque_hand_r_vz
  1.71665     -56.38459      513.1502      17.13627      1.785479 -1.092876e-16     -0.345447             0    -0.6760713             0      35.42598       255.942        18.086      1.533903 -9.367507e-17    -0.1369519             0    -0.6873938             0             0             0             0      1.717594     0.7960139    -0.5006241             0             0             0             0             0             0      1.716211     0.8298103   -0.02869849             0             0             0
 1.733316     -57.77552       572.389      21.66618      1.785724 -1.092876e-16    -0.3462672             0    -0.7039206             0      33.89496      185.2372      26.09913       1.53483 -9.367507e-17    -0.1356873             0    -0.7360401             0             0             0             0      1.728648     0.7955531    -0.5027783             0             0             0             0             0             0      1.719133       0.83003   -0.02771959             0             0             0
 1.749983     -58.62482      631.6033      25.79927      1.785042 -1.092876e-16    -0.3464814             0     -0.700079             0      30.48679      113.9076      33.70887      1.537649 -9.454243e-17    -0.1341015             0    -0.7430258             0             0             0             0      1.739556     0.7961767    -0.5047706             0             0             0             0             0             0      1.721899     0.8312697   -0.02659311             0             0             0
  1.76665     -58.43633      679.0783      28.53541      1.783762 -1.092876e-16    -0.3461069             0    -0.6485347             0      26.04553      54.35709      40.13405      1.543337 -9.454243e-17    -0.1315718             0    -0.6905063             0             0             0             0      1.750458     0.7980814    -0.5065272             0             0             0             0             0             0      1.724709     0.8337616   -0.02527975             0             0             0
 1.783316     -56.89876      707.6098      29.23578      1.782161 -1.092876e-16    -0.3452672             0     -0.556085             0       21.5103      14.51861      44.67293      1.550785 -9.540979e-17    -0.1274077             0    -0.5877741             0             0             0             0      1.761543     0.8005592    -0.5080479             0             0             0             0             0             0      1.727713     0.8367939   -0.02379515             0             0             0
 1.799983     -54.12932       717.231      27.82315      1.780744 -1.092876e-16    -0.3442608             0     -0.446539             0      17.68672     -4.665715      46.79673      1.560063 -9.540979e-17    -0.1237961             0    -0.4647173             0             0             0             0      1.772901     0.8025056     -0.509401             0             0             0             0             0             0      1.730911      0.839234   -0.02221728             0             0             0
  1.81665     -50.68424      714.2634      24.71377        1.7802 -1.092876e-16    -0.3434995             0    -0.3424679             0      14.96686     -8.382967      46.34199      1.573112 -9.714451e-17    -0.1205427             0     -0.350711             0             0             0             0      1.784478     0.8032045    -0.5107167             0             0             0             0             0             0      1.734186     0.8403398   -0.02068187             0             0             0
 1.833316     -47.36446      707.5132      20.54679      1.780585 -1.092876e-16    -0.3431412             0    -0.2481134             0      13.15529      -4.51289      43.73803       1.59003 -9.714451e-17    -0.1158898             0    -0.2536131             0             0             0             0      1.796158     0.8027298    -0.5121386             0             0             0             0             0             0      1.737481     0.8401773   -0.01935189             0             0             0
 1.849983     -44.97384      703.9977      15.89675      1.781306 -1.092876e-16    -0.3430511             0    -0.1475605             0      11.61505     0.2339394      40.02367      1.610766 -9.887924e-17    -0.1106415             0    -0.1554585             0             0             0             0      1.807851     0.8017304    -0.5137418             0             0             0             0             0             0      1.740921     0.8394014   -0.01836816             0             0             0
 1.866649     -44.12121      706.5493      11.13687      1.781956 -1.092876e-16    -0.3430965             0   -0.01888643             0      9.683658      2.534033      36.50198      1.634976  -1.00614e-16     -0.106385             0   -0.02778881             0             0             0             0      1.819498     0.8009229    -0.5154848             0             0             0             0             0             0      1.744735     0.8387219   -0.01781798             0             0             0
 1.883316     -45.06251      714.1215      6.514344      1.782428 -1.092876e-16    -0.3432016             0      0.148831             0      7.038059      2.333794      34.15447      1.661986 -1.023487e-16    -0.1039205             0      0.147021             0             0             0             0      1.831003     0.8007252    -0.5172421             0             0             0             0             0             0       1.74904     0.8385172   -0.01774034             0             0             0
 1.899982     -47.58611      723.9001      2.341681      1.782628 -1.092876e-16    -0.3432879             0     0.3483021             0      3.729887      1.187507      33.16086      1.689324 -1.040834e-16    -0.1038289             0     0.3643052             0             0             0             0      1.842169     0.8011968    -0.5188808             0             0             0             0             0             0      1.753667     0.8387939   -0.01813974             0             0             0
 1.916649     -51.01276      733.5694    -0.9273193       1.78241 -1.092876e-16    -0.3432588             0     0.5562857             0   -0.07673988     0.4322894       32.8827      1.717016 -1.058181e-16    -0.1058478             0     0.5982044             0             0             0             0      1.852735     0.8021587    -0.5203024             0             0             0             0             0             0      1.758216     0.8393606   -0.01897799             0             0             0
 1.933316     -54.39506      742.4631     -2.910076       1.78174 -1.092876e-16    -0.3430273             0     0.7377388             0     -4.368623     0.2397098      32.39765      1.744957 -1.075529e-16    -0.1095432             0     0.8080741             0             0             0             0      1.862506     0.8033175    -0.5214315             0             0             0             0             0             0      1.762322     0.8399734    -0.0201626             0             0             0
 1.949982     -56.89869      751.2581     -3.672578      1.780905 -1.092876e-16    -0.3425564             0     0.8520307             0     -9.280054    -0.1595159      31.24328      1.770283 -1.075529e-16    -0.1151443             0     0.9483279             0             0             0             0      1.871477     0.8043356    -0.5221959             0             0             0             0             0             0      1.765889      0.840371   -0.02156581             0             0             0
 1.966649     -58.19221      760.7046     -3.886704      1.780539 -1.092876e-16    -0.3418836             0     0.8683962             0     -14.82486     -1.444717      29.79903      1.789498 -1.092876e-16    -0.1217696             0     0.9864369             0             0             0             0      1.879839     0.8049109    -0.5225327             0             0             0             0             0             0      1.769143     0.8403029   -0.02306357             0             0             0
 1.983316     -58.60178      770.3164     -4.492433      1.781327 -1.092876e-16    -0.3411083             0     0.7879437             0     -20.62087     -3.113462      28.97529      1.771129 -1.075529e-16    -0.1375847             0     0.9251172             0             0             0             0      1.887866     0.8048956    -0.5224121             0             0             0             0             0             0      1.772474      0.839628   -0.02456014             0             0             0
 1.999982     -58.89226      777.9059      -6.04197      1.783558 -1.092876e-16    -0.3403565             0     0.6541323             0     -25.88506     -3.112435        29.448      1.749149 -1.075529e-16    -0.1540851             0     0.8109065             0             0             0             0      1.895777     0.8043888    -0.5218715             0             0             0             0             0             0      1.776234     0.8384094   -0.02599577             0             0             0
 2.016649     -59.77641      780.3934     -8.265202      1.786965  -1.09396e-16    -0.3397526             0     0.5361483             0     -29.75466      1.378917      31.07793      1.751247 -1.075529e-16    -0.1596608             0     0.7149912             0             0             0             0      1.903616     0.8037102    -0.5210408             0             0             0             0             0             0       1.78059     0.8369065   -0.02735021             0             0             0
